REM MD5 5813dff9de54770fc9196e66aa877493
FILE "Euro Demo 08b (Germany).bin" BINARY
  TRACK 01 MODE2/2352
    INDEX 01 00:00:00
  TRACK 02 AUDIO
    INDEX 00 20:12:66
    INDEX 01 20:14:66
  TRACK 03 AUDIO
    INDEX 00 21:40:28
    INDEX 01 21:42:28
  TRACK 04 AUDIO
    INDEX 00 24:31:47
    INDEX 01 24:33:47
  TRACK 05 AUDIO
    INDEX 00 27:50:16
    INDEX 01 27:52:16
REM LEADOUT 31:09:46
